<svg xmlns="http://www.w3.org/2000/svg" xmlns:xlink="http://www.w3.org/1999/xlink" viewBox="0 0 1002.14 107.3"><defs><clipPath id="clip-path" transform="translate(-0.05)"><rect width="1002.39" height="107.24" style="fill:none"/></clipPath></defs><g id="Layer_2" data-name="Layer 2"><g id="Layer_1-2" data-name="Layer 1"><polygon points="750.6 29.43 825.91 29.23 825.91 104.54 750.6 104.74 750.6 29.43" style="fill:#d2db5d"/><polygon points="838.47 29.19 913.78 28.99 913.78 104.31 838.47 104.51 838.47 29.19" style="fill:#009982"/><polygon points="926.33 28.96 1001.64 28.76 1001.64 104.07 926.33 104.27 926.33 28.96" style="fill:#acb7b7"/><g style="clip-path:url(#clip-path)"><polygon points="926.33 104.27 1001.64 104.07 1001.64 28.76 926.33 28.96 926.33 104.27" style="fill:none;stroke:#acb7b7"/><path d="M607.82,105.59h28.53a72.76,72.76,0,0,1-2.77-20v-41a22.29,22.29,0,0,1,9.7-2.18c5.81,0,9.12,2.24,9.12,10V85.62a77.71,77.71,0,0,1-2.78,20h28.45a81.89,81.89,0,0,1-2.78-20V50.17a50.08,50.08,0,0,0-.33-5.74,22.3,22.3,0,0,1,9.31-2c5.75,0,9.11,2.24,9.11,10V85.64a80.39,80.39,0,0,1-2.77,20h28.13a79.79,79.79,0,0,1-2.51-20V50.17c0-14.85-6.4-23.24-19.87-23.24-10.7,0-18.69,5.55-22.06,14.13-2.24-9.11-8.38-14.13-18.82-14.13s-18.55,5.41-21.92,13.87a80.23,80.23,0,0,0-2-13.87,225.09,225.09,0,0,1-24.7,2.9,79.67,79.67,0,0,1,3.9,26.09V85.63a74,74,0,0,1-2.91,20m-54.78,1.61c10.56,0,18.22-5.41,21.66-13.93a85,85,0,0,0,2,13.93c9.31-1.25,15-2.38,24.76-2.9a76.82,76.82,0,0,1-4-26V26.84a221.15,221.15,0,0,1-26.81,2.84,76.94,76.94,0,0,1,4,26.15V89.5a23.54,23.54,0,0,1-9.77,2.12c-5.81,0-9-2.25-9-10V26.88a225.23,225.23,0,0,1-26.81,2.84,78.73,78.73,0,0,1,4,26.15V83.93c0,14.92,6.41,23.31,20,23.31m-77-1.65h28.66a72,72,0,0,1-2.84-20V52.37c6.14-4.62,14.26-5.61,22.12-3.7V26.88c-11.75-.79-21.53,4.29-23.44,18.69v-.8a73.37,73.37,0,0,0-2.31-18,156.13,156.13,0,0,1-23.19,2.95c3.1,8.72,3.9,17.89,3.9,28.46v27.4a71.67,71.67,0,0,1-2.91,20m-58-39.81c-.53-18.42,3.76-27,15.32-27a16.8,16.8,0,0,1,9.24,2.44V74.62c0,4.75.14,10.17.4,15.85a18.9,18.9,0,0,1-9.11,2.24c-10.37,0-15.32-8.32-15.85-26.94M423,107.24c10.5,0,17.5-5.28,20.21-13.47.2,4.43.53,8.91,1,13.4a185.12,185.12,0,0,1,25.36-3.56c-2.91-10.1-4.1-21.73-4.1-35.59V0c-8.71,1.19-18.22,2-26.87,2.45,3.1,7.33,4,14.53,4,22.12v3.1a43,43,0,0,0-8.84-.79C416,26.9,394.42,34.76,394.42,69c0,24.83,11.56,38.3,28.59,38.3m-63.45-1.65H388a79,79,0,0,1-2.78-20V50.17c0-14.85-6.53-23.24-20.33-23.24-10.77,0-18.56,5.35-22.06,13.74a76.79,76.79,0,0,0-2-13.74,223.89,223.89,0,0,1-24.78,2.79,78.84,78.84,0,0,1,4,26.08V85.58a71.71,71.71,0,0,1-3,20h28.59a73.92,73.92,0,0,1-2.77-20v-41A24.26,24.26,0,0,1,353,42.4c6,0,9.38,2.24,9.38,10V85.61a76.43,76.43,0,0,1-2.84,20m-97.27,1.65c10.57,0,18.23-5.41,21.66-13.93a87.23,87.23,0,0,0,2,13.93c9.31-1.25,15.06-2.38,24.76-2.9a77.06,77.06,0,0,1-4-26V26.86a221.15,221.15,0,0,1-26.81,2.84,77.18,77.18,0,0,1,4,26.15V89.52a23.58,23.58,0,0,1-9.78,2.12c-5.81,0-9-2.25-9-10V26.88a225.23,225.23,0,0,1-26.81,2.84,78.73,78.73,0,0,1,4,26.15V83.93c0,14.92,6.4,23.31,20,23.31m-58.37-1.65h28.46a79.47,79.47,0,0,1-2.77-20V50.17c0-14.85-6.54-23.24-20.34-23.24-10.76,0-18.55,5.35-22.06,13.74a76.79,76.79,0,0,0-2-13.74,225,225,0,0,1-24.7,2.84,78.84,78.84,0,0,1,4,26.08V85.63a71.71,71.71,0,0,1-3,20h28.57a74.32,74.32,0,0,1-2.77-20v-41a24.28,24.28,0,0,1,10.1-2.18c6,0,9.38,2.24,9.38,10V85.66a76.43,76.43,0,0,1-2.84,20M107.07,67c0-23.51,5.09-28.66,12.09-28.66S131.24,43.52,131.24,67s-5,28.72-12.08,28.72S107.07,90.53,107.07,67m12.09,40.21c21.06,0,36.45-13.47,36.45-40.21s-15.39-40.15-36.45-40.15S82.71,40.35,82.71,67s15.38,40.21,36.45,40.21m-70.46,0c10.9,0,20.21-1.45,28.72-5.08V80.83c-6.53,7.2-15,10.3-24.23,10.3-13.87,0-26-10.9-26-38.56,0-25.16,9.12-32.1,22.52-32.1,10.83,0,17.43,4.69,24.24,13.34L78.76,9.38C71.24,6,62,4.3,50.64,4.3,18.28,4.3.05,21.79.05,54.61c0,32.56,18.49,52.63,48.67,52.63" transform="translate(-0.05)" style="fill:#1d1d1b"/></g></g></g></svg>