<svg xmlns="http://www.w3.org/2000/svg" xmlns:xlink="http://www.w3.org/1999/xlink" viewBox="0 0 893.48 289.28"><defs><clipPath id="clip-path" transform="translate(0.01 0)"><rect width="893.5" height="289.29" style="fill:none"/></clipPath></defs><g id="Layer_2" data-name="Layer 2"><g id="Layer_1-2" data-name="Layer 1"><polygon points="263.79 289.28 263.76 289.28 263.76 181.28 371.76 180.99 371.76 288.99 263.79 289.28" style="fill:#d2db5d"/><polygon points="389.76 180.95 497.75 180.66 497.75 288.66 389.76 288.94 389.76 180.95" style="fill:#009982"/><polygon points="515.75 180.61 623.75 180.32 623.75 288.32 515.75 288.61 515.75 180.61" style="fill:#acb7b7"/><g style="clip-path:url(#clip-path)"><path d="M754.12,132.73H790a91.28,91.28,0,0,1-3.49-25.15V56a28,28,0,0,1,12.2-2.74c7.3,0,11.46,2.82,11.46,12.53v41.75a97.26,97.26,0,0,1-3.49,25.15h35.69a103,103,0,0,1-3.49-25.15V63a64.86,64.86,0,0,0-.42-7.22,28.07,28.07,0,0,1,11.7-2.49c7.22,0,11.46,2.82,11.46,12.53v41.75a100.84,100.84,0,0,1-3.49,25.15h35.36a100.77,100.77,0,0,1-3.15-25.15V63c0-18.68-8.05-29.22-25-29.22-13.45,0-23.49,7-27.73,17.76-2.82-11.46-10.54-17.76-23.66-17.76-13.28,0-23.33,6.81-27.56,17.43a99.36,99.36,0,0,0-2.49-17.43,283,283,0,0,1-31,3.65,100.6,100.6,0,0,1,4.9,32.79v37.35a91.81,91.81,0,0,1-3.63,25.16m-68.06,2.07c13.28,0,22.91-6.81,27.23-17.51a108.2,108.2,0,0,0,2.49,17.51c11.7-1.58,18.93-3,31.13-3.65a96.57,96.57,0,0,1-5.06-32.62V33.78a278.55,278.55,0,0,1-33.7,3.57c4.07,11.79,5.06,22.33,5.06,32.87v42.33a29.75,29.75,0,0,1-12.29,2.66c-7.3,0-11.37-2.82-11.37-12.54V33.77a284.28,284.28,0,0,1-33.7,3.57,99,99,0,0,1,5.06,32.87v35.28c0,18.77,8.05,29.31,25.15,29.31m-96.71-2.07h36a90.2,90.2,0,0,1-3.57-25.15V65.82c7.72-5.81,17.93-7.06,27.81-4.65V33.78c-14.77-1-27.06,5.4-29.47,23.49v-1a91.47,91.47,0,0,0-2.91-22.58,195,195,0,0,1-29.14,3.65c3.9,11,4.9,22.5,4.9,35.78v34.45a90,90,0,0,1-3.65,25.16M517.22,82.67c-.66-23.16,4.73-33.95,19.26-33.95a21.23,21.23,0,0,1,11.62,3.07v42c0,6,.17,12.78.5,19.92a23.89,23.89,0,0,1-11.46,2.82c-13,0-19.26-10.45-19.92-33.86m6.23,52.13c13.2,0,22-6.64,25.4-16.93.25,5.56.66,11.21,1.24,16.85,12.37-2.41,21.17-3.82,31.88-4.48-3.65-12.7-5.15-27.31-5.15-44.74V0c-11,1.49-22.91,2.57-33.78,3.07,3.9,9.21,5.06,18.26,5.06,27.81v3.9a55.06,55.06,0,0,0-11.12-1c-22.33,0-49.47,9.88-49.47,52.88,0,31.21,14.52,48.14,35.94,48.14m-78.11-2.07h35.78a99.8,99.8,0,0,1-3.49-25.15V63c0-18.68-8.22-29.22-25.57-29.22-13.53,0-23.33,6.72-27.72,17.27a97.24,97.24,0,0,0-2.57-17.27,285,285,0,0,1-31,3.57,99.28,99.28,0,0,1,5,32.79v37.44A90.21,90.21,0,0,1,392,132.73H427.9a93.07,93.07,0,0,1-3.49-25.15V56a30.47,30.47,0,0,1,12.7-2.74c7.55,0,11.79,2.82,11.79,12.53v41.75a96.48,96.48,0,0,1-3.56,25.16M323.9,134.8c13.28,0,22.91-6.81,27.23-17.51a108.2,108.2,0,0,0,2.49,17.51c11.7-1.58,18.93-3,31.13-3.65a96.57,96.57,0,0,1-5.06-32.62V33.78A278.55,278.55,0,0,1,346,37.35c4.07,11.79,5.06,22.33,5.06,32.87v42.33a29.75,29.75,0,0,1-12.29,2.66c-7.3,0-11.37-2.82-11.37-12.54V33.77a284.28,284.28,0,0,1-33.7,3.57,99,99,0,0,1,5.06,32.87v35.28c0,18.77,8.05,29.31,25.15,29.31M253,132.73h35.78a99.8,99.8,0,0,1-3.49-25.15V63c0-18.68-8.22-29.22-25.57-29.22-13.53,0-23.33,6.72-27.73,17.27a97.24,97.24,0,0,0-2.57-17.27,285,285,0,0,1-31.05,3.57,99.28,99.28,0,0,1,5,32.79v37.44a90.21,90.21,0,0,1-3.74,25.15h35.94a93.07,93.07,0,0,1-3.49-25.15V56a30.47,30.47,0,0,1,12.7-2.74c7.55,0,11.79,2.82,11.79,12.53v41.75A95.61,95.61,0,0,1,253,132.73M134.55,84.25c0-29.55,6.39-36,15.19-36s15.19,6.48,15.19,36-6.31,36.11-15.19,36.11-15.19-6.56-15.19-36.11m15.19,50.55c26.48,0,45.82-16.93,45.82-50.55s-19.34-50.47-45.82-50.47-45.82,16.93-45.82,50.47,19.34,50.55,45.82,50.55m-88.57,0c13.7,0,25.4-1.83,36.11-6.39V101.6c-8.22,9.05-18.93,13-30.46,13-17.43,0-32.71-13.7-32.71-48.48,0-31.63,11.46-40.34,28.31-40.34,13.61,0,21.91,5.89,30.46,16.77l6.06-30.71C89.48,7.47,77.86,5.4,63.58,5.4,22.91,5.4,0,27.4,0,68.65c0,40.92,23.25,66.15,61.18,66.15" transform="translate(0.01 0)"/></g></g></g></svg>