<svg viewBox="0 0 24 24" fill="none" xmlns="http://www.w3.org/2000/svg">
<g clip-path="url(#clip0_807_9814)">
<path d="M12 0C5.37188 0 0 5.37188 0 12C0 18.6281 5.37188 24 12 24C18.6281 24 24 18.6281 24 12C24 5.37188 18.6281 0 12 0ZM12 21.75C6.62344 21.75 2.25 17.3761 2.25 12C2.25 6.62391 6.62344 2.25 12 2.25C17.3766 2.25 21.75 6.62391 21.75 12C21.75 17.3761 17.3766 21.75 12 21.75Z" fill="black"></path>
<path d="M13.2812 9.53125V17.4062H11.125V9.53125H13.2812ZM11 7.19531C11 7.02865 11.0312 6.8724 11.0938 6.72656C11.1562 6.58073 11.2396 6.45573 11.3438 6.35156C11.4531 6.24219 11.5807 6.15625 11.7266 6.09375C11.8776 6.03125 12.0391 6 12.2109 6C12.3776 6 12.5339 6.03125 12.6797 6.09375C12.8307 6.15625 12.9609 6.24219 13.0703 6.35156C13.1797 6.45573 13.2656 6.58073 13.3281 6.72656C13.3958 6.8724 13.4297 7.02865 13.4297 7.19531C13.4297 7.36198 13.3958 7.51823 13.3281 7.66406C13.2656 7.80469 13.1797 7.92969 13.0703 8.03906C12.9609 8.14323 12.8307 8.22656 12.6797 8.28906C12.5339 8.35156 12.3776 8.38281 12.2109 8.38281C12.0391 8.38281 11.8776 8.35156 11.7266 8.28906C11.5807 8.22656 11.4531 8.14323 11.3438 8.03906C11.2396 7.92969 11.1562 7.80469 11.0938 7.66406C11.0312 7.51823 11 7.36198 11 7.19531Z" fill="black"></path>
</g>
<defs>
<clipPath id="clip0_807_9814">
<rect width="24" height="24" fill="white"></rect>
</clipPath>
</defs>
</svg>