<svg viewBox="0 0.36 24 18.29" fill="none" xmlns="http://www.w3.org/2000/svg">
<path d="M1.71429 18.6429C2.66429 18.6429 3.42857 17.8786 3.42857 16.9286V13.5C3.42857 12.5571 2.66429 11.7857 1.71429 11.7857C0.764286 11.7857 0 12.5571 0 13.5V16.9286C0 17.8786 0.771429 18.6429 1.71429 18.6429ZM8.57143 18.6429C9.51786 18.6429 10.2857 17.875 10.2857 16.9286V4.35715C10.2857 3.41429 9.52143 2.64286 8.57143 2.64286C7.62143 2.64286 6.85714 3.41429 6.85714 4.35715V16.9286C6.85714 17.8786 7.62857 18.6429 8.57143 18.6429ZM15.4286 18.6429C16.375 18.6429 17.1429 17.875 17.1429 16.9286V8.92858C17.1429 7.98572 16.3786 7.21429 15.4286 7.21429C14.4786 7.21429 13.7143 7.98572 13.7143 8.92858V16.9286C13.7143 17.8786 14.4857 18.6429 15.4286 18.6429ZM22.2857 18.6429C23.2321 18.6429 24 17.875 24 16.9286V2.07143C24 1.12858 23.2357 0.357147 22.2857 0.357147C21.3357 0.357147 20.5714 1.12858 20.5714 2.07143V16.9286C20.5714 17.8786 21.3429 18.6429 22.2857 18.6429Z" fill="black"></path>
</svg>