<svg width="135" height="32" viewBox="0 0 135 32" fill="none" xmlns="http://www.w3.org/2000/svg">
<path d="M7.9864 29.3962C3.70797 29.3962 1.53707 26.7816 1.53707 21.901V11.918C1.53707 9.74706 1.36276 7.51277 0.792302 5.08833H7.33672V21.8059C7.33672 24.1987 8.58855 24.991 10.7278 24.991C12.1698 24.991 13.4374 24.7374 14.6576 24.1828V23.8817V11.918C14.6576 9.47768 14.4516 7.33846 13.9287 5.08833H20.4572V20.9978C20.4572 23.4539 20.7108 25.91 21.6932 28.6989C19.3005 28.8257 17.7159 29.0317 15.2914 29.3962C15.0379 28.2711 14.8319 26.9876 14.7368 25.6723C13.485 28.0017 11.4091 29.3962 7.9864 29.3962ZM23.6019 29C24.0773 27.3679 24.2992 25.7357 24.2992 24.1987V17.9553C24.2992 15.2615 24.109 12.9955 23.3484 10.8087C25.5668 10.7137 27.8645 10.4601 29.7819 10.1115V24.1987C29.7819 25.7357 29.9879 27.3679 30.4474 29H23.6019ZM23.6495 6.22924C23.6495 4.43864 24.7904 3.36111 26.8979 3.36111C28.9579 3.36111 30.0513 4.43864 30.0513 6.22924C30.0513 8.08323 28.9579 9.14491 26.8979 9.14491C24.7904 9.14491 23.6495 8.08323 23.6495 6.22924ZM32.1749 29C32.6344 27.3679 32.8721 25.7516 32.8721 24.1987V17.0679C32.8721 15.0555 32.682 13.0747 31.9213 10.8087C33.9496 10.682 35.8195 10.4601 37.8636 10.1115C38.0855 11.094 38.2756 12.2666 38.339 13.4392C39.1313 11.4109 41.0645 10.1115 43.584 10.1115C46.0877 10.1115 47.5772 11.3158 48.116 13.5026C48.9083 11.4426 50.8257 10.1115 53.4086 10.1115C56.6253 10.1115 58.1624 12.124 58.1624 15.6893V24.1987C58.1624 25.7674 58.3684 27.4154 58.7804 29H52.0141C52.4578 27.3679 52.6797 25.704 52.6797 24.1987V16.2281C52.6797 14.3741 51.8874 13.8353 50.4929 13.8353C49.764 13.8353 49.0034 13.978 48.2586 14.2949C48.322 14.7386 48.3537 15.1981 48.3537 15.6893V24.1987C48.3537 25.7516 48.6072 27.3837 49.0192 29H42.2054C42.6491 27.3837 42.871 25.6882 42.871 24.1987V16.2281C42.871 14.3741 42.0787 13.8353 40.6842 13.8353C39.9236 13.8353 39.1155 13.9938 38.3548 14.3583V24.1987C38.3548 25.6882 38.545 27.3679 39.0204 29H32.1749ZM70.6553 29C71.0831 27.3837 71.3366 25.7357 71.3366 24.1987V16.2281C71.3366 14.3741 70.5126 13.8353 69.0865 13.8353C68.2784 13.8353 67.4385 13.9938 66.6462 14.3424V24.1987C66.6462 25.7357 66.8364 27.3679 67.3117 29H60.4663C60.9416 27.3679 61.1635 25.7357 61.1635 24.1987V9.08153C61.1635 7.386 60.9733 5.73802 60.2127 4.1851C62.4312 4.07418 64.4753 3.93157 66.6462 3.64634V13.3758C67.5019 11.3792 69.3717 10.1115 71.9229 10.1115C75.2348 10.1115 76.8035 12.124 76.8035 15.7052V24.1987C76.8035 25.7357 77.0571 27.3837 77.4849 29H70.6553ZM79.0321 29C79.5075 27.3679 79.7293 25.7357 79.7293 24.1987V17.9553C79.7293 15.2615 79.5392 12.9955 78.7786 10.8087C80.997 10.7137 83.2947 10.4601 85.2121 10.1115V24.1987C85.2121 25.7357 85.4181 27.3679 85.8776 29H79.0321ZM79.0797 6.22924C79.0797 4.43864 80.2206 3.36111 82.3281 3.36111C84.3881 3.36111 85.4815 4.43864 85.4815 6.22924C85.4815 8.08323 84.3881 9.14491 82.3281 9.14491C80.2206 9.14491 79.0797 8.08323 79.0797 6.22924ZM87.6051 29C88.0805 27.3679 88.3023 25.7357 88.3023 24.1987V17.6225C88.3023 15.0872 88.1121 12.8846 87.3515 10.7929C89.1897 10.6978 90.9486 10.4918 92.9293 10.0957C93.2463 11.3 93.4681 12.7578 93.4681 14.1998V14.5801C93.9435 11.1415 96.2887 9.92137 99.0934 10.1115V15.3407C97.2236 14.8812 95.2587 15.1189 93.785 16.2281V24.4046C93.785 25.9259 93.991 27.3679 94.4664 29H87.6051Z" fill="black"/>
<rect x="107.834" y="1.38603" width="12.4998" height="12.4998" fill="#B8A4CF"/>
<rect x="122.5" y="1.38603" width="12.4998" height="12.4998" fill="#E94F35"/>
<rect x="107.834" y="16.0525" width="12.4998" height="12.4998" fill="#009982"/>
<rect x="122.5" y="16.0525" width="12.4998" height="12.4998" fill="#ABB7B7"/>
</svg>
