<?xml version="1.0" encoding="utf-8"?>
<!-- Generator: Adobe Illustrator 26.0.3, SVG Export Plug-In . SVG Version: 6.00 Build 0)  -->
<svg version="1.1" id="Layer_1" xmlns="http://www.w3.org/2000/svg" xmlns:xlink="http://www.w3.org/1999/xlink" x="0px" y="0px"
	 viewBox="0 0 179 145" style="enable-background:new 0 0 179 145;" xml:space="preserve">
<style type="text/css">
	.st0{fill:#B8A4CF;}
	.st1{fill:#E94F35;}
	.st2{fill:#009982;}
	.st3{fill:#ABB7B7;}
</style>
<rect x="49" y="0" class="st0" width="37.3" height="37.3"/>
<rect x="92.7" y="0" class="st1" width="37.3" height="37.3"/>
<rect x="49" y="43.8" class="st2" width="37.3" height="37.3"/>
<rect x="92.7" y="43.8" class="st3" width="37.3" height="37.3"/>
<path d="M14.3,142.5c-7.7,0-11.6-4.7-11.6-13.4v-17.9c0-3.9-0.3-7.9-1.3-12.3h11.7v30c0,4.3,2.2,5.7,6.1,5.7c2.6,0,4.9-0.5,7-1.4
	v-0.5v-21.5c0-4.4-0.4-8.2-1.3-12.3h11.7v28.5c0,4.4,0.5,8.8,2.2,13.8c-4.3,0.2-7.1,0.6-11.5,1.2c-0.5-2-0.8-4.3-1-6.7
	C24.2,140,20.5,142.5,14.3,142.5z M42.3,141.8c0.9-2.9,1.3-5.9,1.3-8.6V122c0-4.8-0.3-8.9-1.7-12.8c4-0.2,8.1-0.6,11.5-1.2v25.3
	c0,2.8,0.4,5.7,1.2,8.6H42.3z M42.4,101c0-3.2,2-5.1,5.8-5.1c3.7,0,5.7,1.9,5.7,5.1c0,3.3-2,5.2-5.7,5.2
	C44.5,106.2,42.4,104.3,42.4,101z M57.7,141.8c0.8-2.9,1.3-5.8,1.3-8.6v-12.8c0-3.6-0.3-7.2-1.7-11.2c3.6-0.2,7-0.6,10.7-1.2
	c0.4,1.8,0.7,3.9,0.9,6c1.4-3.6,4.9-6,9.4-6c4.5,0,7.2,2.2,8.1,6.1c1.4-3.7,4.9-6.1,9.5-6.1c5.8,0,8.5,3.6,8.5,10v15.3
	c0,2.8,0.4,5.8,1.1,8.6H93.3c0.8-2.9,1.2-5.9,1.2-8.6v-14.3c0-3.3-1.4-4.3-3.9-4.3c-1.3,0-2.7,0.3-4,0.8c0.1,0.8,0.2,1.6,0.2,2.5
	v15.3c0,2.8,0.5,5.7,1.2,8.6H75.7c0.8-2.9,1.2-5.9,1.2-8.6v-14.3c0-3.3-1.4-4.3-3.9-4.3c-1.4,0-2.8,0.3-4.2,0.9v17.7
	c0,2.7,0.3,5.7,1.2,8.6H57.7z M126.7,141.8c0.8-2.9,1.2-5.9,1.2-8.6v-14.3c0-3.3-1.5-4.3-4-4.3c-1.4,0-3,0.3-4.4,0.9v17.7
	c0,2.8,0.3,5.7,1.2,8.6h-12.3c0.9-2.9,1.3-5.9,1.3-8.6v-27.1c0-3-0.3-6-1.7-8.8c4-0.2,7.6-0.5,11.5-1v17.5c1.5-3.6,4.9-5.9,9.5-5.9
	c5.9,0,8.8,3.6,8.8,10v15.2c0,2.8,0.5,5.7,1.2,8.6H126.7z M141.8,141.8c0.9-2.9,1.2-5.9,1.2-8.6V122c0-4.8-0.3-8.9-1.7-12.8
	c4-0.2,8.1-0.6,11.5-1.2v25.3c0,2.8,0.4,5.7,1.2,8.6H141.8z M141.8,101c0-3.2,2-5.1,5.8-5.1c3.7,0,5.7,1.9,5.7,5.1
	c0,3.3-2,5.2-5.7,5.2C143.9,106.2,141.8,104.3,141.8,101z M157.1,141.8c0.9-2.9,1.2-5.9,1.2-8.6v-11.8c0-4.5-0.3-8.5-1.7-12.2
	c3.3-0.2,6.5-0.5,10-1.3c0.6,2.2,1,4.8,1,7.4v0.7c0.9-6.2,5.1-8.4,10.1-8v9.4c-3.4-0.8-6.9-0.4-9.5,1.6v14.7c0,2.7,0.4,5.3,1.2,8.2
	H157.1z"/>
</svg>
